<mxfile host="Electron" modified="2023-10-22T15:57:10.158Z" agent="Mozilla/5.0 (Windows NT 10.0; Win64; x64) AppleWebKit/537.36 (KHTML, like Gecko) draw.io/22.0.3 Chrome/114.0.5735.289 Electron/25.8.4 Safari/537.36" etag="18erUOVks0Cipw4zAfDe" version="22.0.3" type="device">
  <diagram name="Сторінка-1" id="16uNBMUPMNt3LODtoYmI">
    <mxGraphModel dx="1036" dy="606" grid="1" gridSize="10" guides="1" tooltips="1" connect="1" arrows="1" fold="1" page="1" pageScale="1" pageWidth="827" pageHeight="1169" math="0" shadow="0">
      <root>
        <mxCell id="0" />
        <mxCell id="1" parent="0" />
        <mxCell id="tfUgb17soO2Li63GGgPO-3" style="edgeStyle=orthogonalEdgeStyle;rounded=0;orthogonalLoop=1;jettySize=auto;html=1;exitX=0.5;exitY=1;exitDx=0;exitDy=0;entryX=0.5;entryY=0;entryDx=0;entryDy=0;" edge="1" parent="1" source="tfUgb17soO2Li63GGgPO-1" target="tfUgb17soO2Li63GGgPO-2">
          <mxGeometry relative="1" as="geometry" />
        </mxCell>
        <mxCell id="tfUgb17soO2Li63GGgPO-1" value="Start" style="rounded=1;whiteSpace=wrap;html=1;" vertex="1" parent="1">
          <mxGeometry x="270" y="140" width="120" height="60" as="geometry" />
        </mxCell>
        <mxCell id="tfUgb17soO2Li63GGgPO-6" value="" style="edgeStyle=orthogonalEdgeStyle;rounded=0;orthogonalLoop=1;jettySize=auto;html=1;" edge="1" parent="1" source="tfUgb17soO2Li63GGgPO-2" target="tfUgb17soO2Li63GGgPO-5">
          <mxGeometry relative="1" as="geometry" />
        </mxCell>
        <mxCell id="tfUgb17soO2Li63GGgPO-2" value="a = 1000, b = 0.0001" style="rounded=0;whiteSpace=wrap;html=1;" vertex="1" parent="1">
          <mxGeometry x="270" y="250" width="120" height="60" as="geometry" />
        </mxCell>
        <mxCell id="tfUgb17soO2Li63GGgPO-18" style="edgeStyle=orthogonalEdgeStyle;rounded=0;orthogonalLoop=1;jettySize=auto;html=1;exitX=0.5;exitY=1;exitDx=0;exitDy=0;entryX=0.5;entryY=0;entryDx=0;entryDy=0;" edge="1" parent="1" source="tfUgb17soO2Li63GGgPO-5" target="tfUgb17soO2Li63GGgPO-17">
          <mxGeometry relative="1" as="geometry" />
        </mxCell>
        <mxCell id="tfUgb17soO2Li63GGgPO-5" value="suma1 = ((pow(a+b, 3)- pow (a, 3))/(3*a*pow(b,2)+pow(b, 3)+3* pow(a,2) *b&amp;nbsp; ))" style="rounded=0;whiteSpace=wrap;html=1;" vertex="1" parent="1">
          <mxGeometry x="270" y="370" width="120" height="60" as="geometry" />
        </mxCell>
        <mxCell id="tfUgb17soO2Li63GGgPO-20" value="" style="edgeStyle=orthogonalEdgeStyle;rounded=0;orthogonalLoop=1;jettySize=auto;html=1;" edge="1" parent="1" source="tfUgb17soO2Li63GGgPO-17" target="tfUgb17soO2Li63GGgPO-19">
          <mxGeometry relative="1" as="geometry" />
        </mxCell>
        <mxCell id="tfUgb17soO2Li63GGgPO-17" value="cout &amp;lt;&amp;lt; suma1" style="shape=parallelogram;perimeter=parallelogramPerimeter;whiteSpace=wrap;html=1;fixedSize=1;" vertex="1" parent="1">
          <mxGeometry x="270" y="470" width="120" height="60" as="geometry" />
        </mxCell>
        <mxCell id="tfUgb17soO2Li63GGgPO-19" value="end" style="rounded=1;whiteSpace=wrap;html=1;" vertex="1" parent="1">
          <mxGeometry x="270" y="570" width="120" height="60" as="geometry" />
        </mxCell>
      </root>
    </mxGraphModel>
  </diagram>
</mxfile>
